<svg xmlns="http://www.w3.org/2000/svg" width="135.576" height="24.244" viewBox="0 0 135.576 24.244">
  <g id="Group_25182" data-name="Group 25182" transform="translate(-357.5 -522.756)">
    <g id="Group_24953" data-name="Group 24953" transform="translate(86 488.256)">
      <g id="Group_2" data-name="Group 2" transform="translate(276.755 39.246)">
        <path id="Path_1" data-name="Path 1" d="M-1347.035,600.386a9.177,9.177,0,0,0,9.177-9.177,9.131,9.131,0,0,0-1.676-5.284c-.2-.21-.369-.406-.515-.585-1.741-2.134-2.121-1.5-2.229-1.285-.319.893.68,1.009,1.183,1.384.427.319.108,1.3-.233,1.276-.323-.026-.587-.128-1.072-1.174s-1.8-1.135-1.926-.446.766,1.123,1.48,1.378,1.52,1.178,1.263,1.48c-.23.27-.628.34-.931-.191-.587-1.046-.969-1.215-1.429-1.033a.385.385,0,0,0-.083.709c.195.106.849.405.351.719-.651.357-.6-.472-1.4-.829a.741.741,0,0,0-1.084.842c.177.377,1.722.536,2,1.352.829,2.411-2.921,2.868-5.351,1.851a8.474,8.474,0,0,0-6.563-.167.326.326,0,0,0-.13.275A9.175,9.175,0,0,0-1347.035,600.386Z" transform="translate(1356.205 -583.799)" fill="#80c627"/>
        <path id="Path_2" data-name="Path 2" d="M-1265.621,601.974a4.715,4.715,0,0,1-1.123.089.548.548,0,0,1-.5-.6c.064-.37.88-.421,1.314.128Z" transform="translate(1277.271 -599.224)" fill="#80c627"/>
        <path id="Path_3" data-name="Path 3" d="M-1243.652,585.2a2.36,2.36,0,0,1-.561-.063.274.274,0,0,1-.188-.342c.067-.176.473-.123.634.187Z" transform="translate(1257.011 -584.594)" fill="#80c627"/>
      </g>
      <path id="Union_1" data-name="Union 1" d="M13.89,23.244h-.036A11.626,11.626,0,0,1,2.611,14.578,3.313,3.313,0,0,1,0,11.622,3.313,3.313,0,0,1,2.611,8.666,11.627,11.627,0,0,1,13.854,0h.071A11.626,11.626,0,0,1,25.168,8.666a3.313,3.313,0,0,1,2.611,2.956,3.313,3.313,0,0,1-2.611,2.956,11.626,11.626,0,0,1-11.243,8.666Zm-9.9-11.622a9.9,9.9,0,1,0,9.9-9.932A9.944,9.944,0,0,0,3.993,11.622Z" transform="translate(272 35)" fill="#80c627" stroke="rgba(0,0,0,0)" stroke-miterlimit="10" stroke-width="1"/>
    </g>
    <path id="Path_13275" data-name="Path 13275" d="M2.016-4.392V-7.464H3.624c1.248,0,1.776.576,1.776,1.548,0,.936-.528,1.524-1.776,1.524Zm4.5-1.524c0-1.368-.924-2.448-2.892-2.448H.924V0H2.016V-3.492H3.624C5.7-3.492,6.516-4.644,6.516-5.916ZM7.872,0H8.964V-8.88H7.872Zm2.544-3.312A3.163,3.163,0,0,0,13.524.108a2.746,2.746,0,0,0,2.46-1.332V0h1.1V-6.576h-1.1v1.2a2.729,2.729,0,0,0-2.448-1.308A3.116,3.116,0,0,0,10.416-3.312Zm5.568.012A2.25,2.25,0,0,1,13.752-.852a2.252,2.252,0,0,1-2.22-2.46,2.22,2.22,0,0,1,2.22-2.424A2.253,2.253,0,0,1,15.984-3.3ZM23.748,0h1.08V-3.876A2.551,2.551,0,0,0,22.14-6.7,2.429,2.429,0,0,0,20.028-5.64v-.936H18.936V0h1.092V-3.636c0-1.416.768-2.112,1.884-2.112s1.836.684,1.836,2.028Zm3.108-1.8c0,1.32.66,1.8,1.824,1.8h.984V-.924h-.8c-.672,0-.912-.228-.912-.876V-5.676h1.716v-.9H27.948V-8.232H26.856v1.656H26v.9h.852ZM34.188,0H35.28V-6.2L38.052,0h.768l2.76-6.192V0h1.092V-8.3H41.508L38.436-1.44,35.364-8.3H34.188ZM44.52,0h1.092V-6.576H44.52Zm.564-7.644a.728.728,0,0,0,.72-.744.728.728,0,0,0-.72-.744.733.733,0,0,0-.744.744A.733.733,0,0,0,45.084-7.644ZM47.472,0h1.092V-8.88H47.472Zm2.952,0h1.092V-2.9L54.1,0h1.488L52.476-3.3l3.1-3.276H54.048L51.516-3.66V-8.88H50.424Zm9.384,0H60.9V-6.2L63.672,0h.768L67.2-6.192V0h1.092V-8.3H67.128L64.056-1.44,60.984-8.3H59.808Zm9.924-3.312A3.163,3.163,0,0,0,72.84.108,2.746,2.746,0,0,0,75.3-1.224V0h1.1V-6.576H75.3v1.2a2.729,2.729,0,0,0-2.448-1.308A3.116,3.116,0,0,0,69.732-3.312ZM75.3-3.3A2.25,2.25,0,0,1,73.068-.852a2.252,2.252,0,0,1-2.22-2.46,2.22,2.22,0,0,1,2.22-2.424A2.253,2.253,0,0,1,75.3-3.3ZM78.252,0h1.092V-2.9L81.924,0h1.488L80.3-3.3l3.1-3.276H81.876L79.344-3.66V-8.88H78.252Zm8.976-5.76A1.93,1.93,0,0,1,89.3-3.768H85.152A2.037,2.037,0,0,1,87.228-5.76ZM90.3-2.028H89.124A1.807,1.807,0,0,1,87.276-.816,2.067,2.067,0,0,1,85.14-2.88H90.4a5.919,5.919,0,0,0,.036-.66,3.014,3.014,0,0,0-3.156-3.144A3.129,3.129,0,0,0,84.024-3.3,3.168,3.168,0,0,0,87.276.108,2.957,2.957,0,0,0,90.3-2.028Zm2.664-1.548c0-1.524.792-1.992,1.836-1.992h.288V-6.7a2.215,2.215,0,0,0-2.124,1.188V-6.576H91.872V0h1.092Zm8.112,1.788c-.048-2.352-3.864-1.5-3.864-3.06,0-.528.48-.912,1.284-.912a1.265,1.265,0,0,1,1.428,1.14h1.092a2.206,2.206,0,0,0-2.484-2.064c-1.464,0-2.412.828-2.412,1.836,0,2.448,3.888,1.6,3.888,3.06,0,.54-.48.972-1.344.972-.924,0-1.488-.48-1.548-1.116H95.988c.072,1.2,1.152,2.04,2.688,2.04C100.128.108,101.076-.708,101.076-1.788Z" transform="translate(392 540)"/>
  </g>
</svg>
