<svg xmlns="http://www.w3.org/2000/svg" xmlns:xlink="http://www.w3.org/1999/xlink" width="182.614" height="45" viewBox="0 0 182.614 45"><defs><clipPath id="a"><path d="M233.14,40.266,235.924,0,269.23,13.348,283.271,45Z" transform="translate(-233.14)" fill="none"/></clipPath></defs><g transform="translate(0 10.24)"><path d="M0,22.957a22.475,22.475,0,0,1,4.648-.438c2.54,0,4.177.438,5.376,1.432a4.143,4.143,0,0,1,1.665,3.478,4.662,4.662,0,0,1-3.33,4.324v.085a5.012,5.012,0,0,1,4.057,4.91,5.171,5.171,0,0,1-1.7,3.944c-1.341,1.256-3.563,1.841-6.779,1.841A29.338,29.338,0,0,1,0,42.3ZM2.54,31.02H4.853c2.659,0,4.239-1.409,4.239-3.33,0-2.273-1.7-3.216-4.3-3.216a11.1,11.1,0,0,0-2.273.176Zm0,9.388a14.127,14.127,0,0,0,2.137.119c2.631,0,5.052-.966,5.052-3.83,0-2.659-2.307-3.8-5.08-3.8H2.54Z" transform="translate(0 -19.962)" fill="#fe5717"/><path d="M25.76,22.77h2.574V40.335H36.75v2.131H25.76Z" transform="translate(-11.122 -20.071)" fill="#fe5717"/><path d="M58.189,33.232H50.563v7.1h8.524v2.131H48V22.77H58.655v2.137H50.563v6.222h7.626Z" transform="translate(-20.724 -20.071)" fill="#fe5717"/><path d="M71.28,42.466V22.77h2.8l6.285,9.967a54.649,54.649,0,0,1,3.506,6.4h.085c-.233-2.631-.29-5.023-.29-8.092V22.77h2.4v19.7H83.492l-6.251-9.99a57.646,57.646,0,0,1-3.654-6.58H73.5c.148,2.483.176,4.847.176,8.12v8.444Z" transform="translate(-30.775 -20.071)" fill="#fe5717"/><path d="M103.038,22.957a32.743,32.743,0,0,1,5.4-.438c3.654,0,6.251.875,7.956,2.455a9.213,9.213,0,0,1,2.807,7.069A10.553,10.553,0,0,1,116.36,39.7c-1.818,1.807-4.91,2.841-8.74,2.841a40.22,40.22,0,0,1-4.614-.233Zm2.54,17.417a21.769,21.769,0,0,0,2.574.114c5.461,0,8.382-3.04,8.382-8.353.034-4.648-2.6-7.6-7.956-7.6a14.348,14.348,0,0,0-2.983.261Z" transform="translate(-44.474 -19.963)" fill="#fe5717"/><path d="M137.769,22.77v19.7H135.2V22.77Z" transform="translate(-58.372 -20.071)" fill="#fe5717"/><path d="M145.48,42.466V22.77h2.807l6.285,9.967a55.5,55.5,0,0,1,3.506,6.4h.085c-.233-2.631-.29-5.023-.29-8.092V22.77h2.392v19.7h-2.557l-6.251-9.99a57.583,57.583,0,0,1-3.647-6.58h-.091c.148,2.483.176,4.847.176,8.12v8.444Z" transform="translate(-62.81 -20.071)" fill="#fe5717"/><path d="M191.382,41.436a17.86,17.86,0,0,1-6.08,1.08,10.223,10.223,0,0,1-7.387-2.6,10.093,10.093,0,0,1-2.745-7.336c0-5.876,4.063-10.166,10.666-10.166a12.354,12.354,0,0,1,4.961.9l-.642,2.074a9.831,9.831,0,0,0-4.358-.847c-4.79,0-7.916,2.978-7.916,7.916s2.978,7.956,7.6,7.956a8.313,8.313,0,0,0,3.41-.523V34.015H184.91V31.969h6.472Z" transform="translate(-75.629 -19.916)" fill="#fe5717"/><path d="M221.3,26.408h-.062l-3.3,1.779-.494-1.955,4.148-2.222h2.193V43H221.3Z" transform="translate(-93.879 -20.606)" fill="#7cbc39"/><path d="M309.3,26.408h-.062l-3.3,1.779-.494-1.955,4.148-2.222h2.193V43H309.3Z" transform="translate(-131.873 -20.606)" fill="#7cbc39"/><g transform="translate(132.483 -10.24)"><g clip-path="url(#a)"><path d="M253.017,17.449a21.73,21.73,0,0,0-5.683-1.307,14.053,14.053,0,0,0-5.228.489,8.87,8.87,0,0,0-4.143,2.6,8.524,8.524,0,0,0-2.012,5.114,12.945,12.945,0,0,0,.364,3.9,18.566,18.566,0,0,0,1.608,4.194,25.149,25.149,0,0,0,2.779,4.194,30.117,30.117,0,0,0,3.733,3.836,28.15,28.15,0,0,1-2.318-3.25,23.832,23.832,0,0,1-1.7-3.33,18.33,18.33,0,0,1-.994-3.267,14.047,14.047,0,0,1-.284-3.074,9.308,9.308,0,0,1,1.7-5.438,8.444,8.444,0,0,1,3.91-2.841,12.547,12.547,0,0,1,5.046-.7,20.178,20.178,0,0,1,5.614,1.165q1.245.45,2.438,1.011c.8.375,1.557.784,2.307,1.227s1.477.915,2.182,1.421,1.387,1.034,2.046,1.6a31.567,31.567,0,0,0-2.461-2.307,30.99,30.99,0,0,0-5.682-3.813,28.176,28.176,0,0,0-3.222-1.415" transform="translate(-234.345 -6.942)" fill="#7cbc39"/><path d="M281.522,27.147c.528.54,1.04,1.1,1.517,1.671s.943,1.171,1.369,1.767.824,1.233,1.182,1.858a19.323,19.323,0,0,1,.966,1.943,12.308,12.308,0,0,1,1.051,4.319,6.251,6.251,0,0,1-.852,3.58,5.4,5.4,0,0,1-3.017,2.273,10.746,10.746,0,0,1-5.364.148,19.406,19.406,0,0,1-2.892-.807,25.032,25.032,0,0,1-2.972-1.307,29.309,29.309,0,0,1-2.927-1.756,31.1,31.1,0,0,1-2.773-2.12,31.249,31.249,0,0,0,3.279,3.211,29.984,29.984,0,0,0,3.7,2.694,25.32,25.32,0,0,0,3.87,1.966,18.29,18.29,0,0,0,3.768,1.085,9.558,9.558,0,0,0,5.182-.352,5.268,5.268,0,0,0,2.807-2.506,7.018,7.018,0,0,0,.659-3.79,13.742,13.742,0,0,0-1.222-4.495,21.455,21.455,0,0,0-1.392-2.614,25.1,25.1,0,0,0-1.7-2.443,28.773,28.773,0,0,0-2-2.273c-.7-.722-1.443-1.415-2.216-2.068" transform="translate(-247.677 -11.713)" fill="#fe520a"/><path d="M258.717,23.173a7.672,7.672,0,0,0-2.222,1.029,6.677,6.677,0,0,0-1.762,1.7,7.472,7.472,0,0,0-1.136,2.461,10.416,10.416,0,0,0-.261,3.279,17.98,17.98,0,0,0,2.12,6.99,28.98,28.98,0,0,0,5.194,7.007,30.607,30.607,0,0,0,7.188,5.393,20.281,20.281,0,0,0,7.529,2.421,11.8,11.8,0,0,0,3.608-.176,7.955,7.955,0,0,0,2.711-1.137,6.739,6.739,0,0,0,1.841-1.835,7.389,7.389,0,0,0,1.04-2.33,5.837,5.837,0,0,1-1.2,1.313,6.318,6.318,0,0,1-1.659.949,8.159,8.159,0,0,1-2.142.5,11.393,11.393,0,0,1-2.625-.045,19.94,19.94,0,0,1-7.024-2.415,30.272,30.272,0,0,1-6.762-5.114,29.067,29.067,0,0,1-4.989-6.535,17.583,17.583,0,0,1-2.193-6.5,10.4,10.4,0,0,1,0-2.387A7.5,7.5,0,0,1,256.5,25.8a5.875,5.875,0,0,1,.932-1.512,5.745,5.745,0,0,1,1.262-1.137" transform="translate(-241.845 -9.995)" fill="#fe520a"/><path d="M262.11,11.718a23.739,23.739,0,0,0-2.887-.955,17.616,17.616,0,0,0-2.767-.472,12.36,12.36,0,0,0-2.563.034,8.768,8.768,0,0,0-2.273.568,12.962,12.962,0,0,1,2.074-.108,16.553,16.553,0,0,1,2.188.2,21.145,21.145,0,0,1,2.273.5,23.769,23.769,0,0,1,2.353.784,29.551,29.551,0,0,1,5.165,2.654,31.484,31.484,0,0,1,4.455,3.472,27.872,27.872,0,0,1,3.631,4.1,20.27,20.27,0,0,1,2.512,4.654,14.03,14.03,0,0,1,.614,2.063,10.979,10.979,0,0,1,.239,1.96,8.374,8.374,0,0,1-.148,1.835,6.753,6.753,0,0,1-.568,1.7,5.485,5.485,0,0,0,1.239-1.7,6.326,6.326,0,0,0,.529-2.085,8.711,8.711,0,0,0-.119-2.341,13.068,13.068,0,0,0-.739-2.546,19.981,19.981,0,0,0-2.489-4.4A28.175,28.175,0,0,0,271.3,17.7a31.434,31.434,0,0,0-4.29-3.347,28.414,28.414,0,0,0-4.927-2.574" transform="translate(-241.119 -4.421)" fill="#fe520a"/></g></g></g></svg>