<?xml version="1.0" encoding="utf-8"?>
<!-- Generator: Adobe Illustrator 25.3.1, SVG Export Plug-In . SVG Version: 6.00 Build 0)  -->
<svg version="1.1" id="Layer_1" xmlns="http://www.w3.org/2000/svg" xmlns:xlink="http://www.w3.org/1999/xlink" x="0px" y="0px"
	 viewBox="0 0 12.1 6.9" style="enable-background:new 0 0 12.1 6.9;" xml:space="preserve">
<style type="text/css">
	.st0{fill:#112433;}
</style>
<path id="Path_452" class="st0" d="M12,0.6l-0.5-0.5C11.3,0,11.1,0,11,0.1c0,0,0,0,0,0L6.1,5l-5-4.9C1,0,0.8,0,0.6,0.1c0,0,0,0,0,0
	L0.1,0.6C0,0.8,0,1,0.1,1.1c0,0,0,0,0,0l5.7,5.7C6,7,6.2,7,6.3,6.8c0,0,0,0,0,0L12,1.1C12.1,1,12.1,0.8,12,0.6C12,0.6,12,0.6,12,0.6
	z"/>
</svg>
